<svg width="40" height="40" viewBox="0 0 40 40" fill="none" xmlns="http://www.w3.org/2000/svg">
<g id="Frame 1984080504">
<rect width="40" height="40" fill="white"/>
<g id="Group 1437253006" filter="url(#filter0_d_1_2975)">
<g id="Rectangle 161124497">
<mask id="path-1-inside-1_1_2975" fill="white">
<path d="M17.0199 4.09098C17.9901 2.41049 20.1389 1.83471 21.8194 2.80494L33.0543 9.29143C34.7348 10.2617 35.3106 12.4105 34.3404 14.091L24.8471 30.5338C22.0857 35.3167 15.9698 36.9554 11.1869 34.194C6.40394 31.4326 4.76519 25.3167 7.52661 20.5338L17.0199 4.09098Z"/>
</mask>
<g filter="url(#filter1_i_1_2975)">
<path d="M17.0199 4.09098C17.9901 2.41049 20.1389 1.83471 21.8194 2.80494L33.0543 9.29143C34.7348 10.2617 35.3106 12.4105 34.3404 14.091L24.8471 30.5338C22.0857 35.3167 15.9698 36.9554 11.1869 34.194C6.40394 31.4326 4.76519 25.3167 7.52661 20.5338L17.0199 4.09098Z" fill="url(#paint0_linear_1_2975)"/>
</g>
<g clip-path="url(#paint1_angular_1_2975_clip_path)" data-figma-skip-parse="true" mask="url(#path-1-inside-1_1_2975)"><g transform="matrix(0.00833333 -0.0144338 0.0100074 0.00577779 19.5202 19.7603)"><foreignObject x="-1070" y="-1070" width="2140" height="2140"><div xmlns="http://www.w3.org/1999/xhtml" style="background:conic-gradient(from 90deg,rgba(131, 225, 218, 1) 0deg,rgba(73, 180, 171, 1) 43.6716deg,rgba(136, 199, 192, 1) 148.856deg,rgba(205, 243, 235, 1) 224.092deg,rgba(242, 255, 250, 1) 299.687deg,rgba(131, 225, 218, 1) 360deg);height:100%;width:100%;opacity:1"></div></foreignObject></g></g><path d="M21.8194 2.80494L21.2361 3.81531L32.471 10.3018L33.0543 9.29143L33.6377 8.28107L22.4027 1.79458L21.8194 2.80494ZM34.3404 14.091L33.33 13.5076L23.8368 29.9504L24.8471 30.5338L25.8575 31.1171L35.3507 14.6743L34.3404 14.091ZM7.52661 20.5338L8.53697 21.1171L18.0302 4.67431L17.0199 4.09098L16.0095 3.50765L6.51625 19.9504L7.52661 20.5338ZM11.1869 34.194L11.7702 33.1836C7.54528 30.7444 6.09772 25.342 8.53697 21.1171L7.52661 20.5338L6.51625 19.9504C3.43266 25.2914 5.2626 32.1208 10.6035 35.2044L11.1869 34.194ZM24.8471 30.5338L23.8368 29.9504C21.3975 34.1753 15.9951 35.6229 11.7702 33.1836L11.1869 34.194L10.6035 35.2044C15.9445 38.288 22.7739 36.458 25.8575 31.1171L24.8471 30.5338ZM33.0543 9.29143L32.471 10.3018C33.5935 10.9499 33.9781 12.3852 33.33 13.5076L34.3404 14.091L35.3507 14.6743C36.6431 12.4358 35.8762 9.57346 33.6377 8.28107L33.0543 9.29143ZM21.8194 2.80494L22.4027 1.79458C20.1642 0.502185 17.3019 1.26915 16.0095 3.50765L17.0199 4.09098L18.0302 4.67431C18.6783 3.55183 20.1136 3.16724 21.2361 3.81531L21.8194 2.80494Z" data-figma-gradient-fill="{&#34;type&#34;:&#34;GRADIENT_ANGULAR&#34;,&#34;stops&#34;:[{&#34;color&#34;:{&#34;r&#34;:0.51625537872314453,&#34;g&#34;:0.88505858182907104,&#34;b&#34;:0.85773980617523193,&#34;a&#34;:1.0},&#34;position&#34;:0.0},{&#34;color&#34;:{&#34;r&#34;:0.28627452254295349,&#34;g&#34;:0.70588237047195435,&#34;b&#34;:0.67058825492858887,&#34;a&#34;:1.0},&#34;position&#34;:0.12131004780530930},{&#34;color&#34;:{&#34;r&#34;:0.53333336114883423,&#34;g&#34;:0.78039216995239258,&#34;b&#34;:0.75294119119644165,&#34;a&#34;:1.0},&#34;position&#34;:0.41349017620086670},{&#34;color&#34;:{&#34;r&#34;:0.80392158031463623,&#34;g&#34;:0.95294117927551270,&#34;b&#34;:0.92156863212585449,&#34;a&#34;:1.0},&#34;position&#34;:0.62247872352600098},{&#34;color&#34;:{&#34;r&#34;:0.95017904043197632,&#34;g&#34;:1.0,&#34;b&#34;:0.98414301872253418,&#34;a&#34;:1.0},&#34;position&#34;:0.83246290683746338}],&#34;stopsVar&#34;:[{&#34;color&#34;:{&#34;r&#34;:0.51625537872314453,&#34;g&#34;:0.88505858182907104,&#34;b&#34;:0.85773980617523193,&#34;a&#34;:1.0},&#34;position&#34;:0.0},{&#34;color&#34;:{&#34;r&#34;:0.28627452254295349,&#34;g&#34;:0.70588237047195435,&#34;b&#34;:0.67058825492858887,&#34;a&#34;:1.0},&#34;position&#34;:0.12131004780530930},{&#34;color&#34;:{&#34;r&#34;:0.53333336114883423,&#34;g&#34;:0.78039216995239258,&#34;b&#34;:0.75294119119644165,&#34;a&#34;:1.0},&#34;position&#34;:0.41349017620086670},{&#34;color&#34;:{&#34;r&#34;:0.80392158031463623,&#34;g&#34;:0.95294117927551270,&#34;b&#34;:0.92156863212585449,&#34;a&#34;:1.0},&#34;position&#34;:0.62247872352600098},{&#34;color&#34;:{&#34;r&#34;:0.95017904043197632,&#34;g&#34;:1.0,&#34;b&#34;:0.98414301872253418,&#34;a&#34;:1.0},&#34;position&#34;:0.83246290683746338}],&#34;transform&#34;:{&#34;m00&#34;:16.666666030883789,&#34;m01&#34;:20.014841079711914,&#34;m02&#34;:1.1794453859329224,&#34;m10&#34;:-28.867513656616211,&#34;m11&#34;:11.555572509765625,&#34;m12&#34;:28.416225433349609},&#34;opacity&#34;:1.0,&#34;blendMode&#34;:&#34;NORMAL&#34;,&#34;visible&#34;:true}" mask="url(#path-1-inside-1_1_2975)"/>
</g>
<path id="Rectangle 161124499" d="M14.489 13.4746C15.0612 12.4835 16.3285 12.1439 17.3195 12.7161L26.721 18.144C27.712 18.7162 28.0516 19.9835 27.4794 20.9746L22.6821 29.2837C20.611 32.8709 16.0241 34.1 12.4369 32.0289C8.84973 29.9578 7.62066 25.3709 9.69173 21.7837L14.489 13.4746Z" fill="url(#paint2_linear_1_2975)"/>
<g id="Rectangle 161124493" filter="url(#filter2_d_1_2975)">
<path d="M15.4136 13.5403C15.6437 13.1417 16.1534 13.0052 16.5519 13.2353L17.9953 14.0686C18.3939 14.2987 18.5304 14.8084 18.3003 15.207C18.0702 15.6055 17.5605 15.7421 17.162 15.512L15.7186 14.6786C15.32 14.4485 15.1835 13.9389 15.4136 13.5403Z" fill="#CFF5F1"/>
</g>
<g id="Rectangle 161124501" filter="url(#filter3_d_1_2975)">
<path d="M12.9136 17.8701C13.1437 17.4715 13.6534 17.335 14.0519 17.5651L15.4953 18.3984C15.8939 18.6286 16.0304 19.1382 15.8003 19.5368C15.5702 19.9354 15.0605 20.0719 14.662 19.8418L13.2186 19.0085C12.82 18.7784 12.6835 18.2687 12.9136 17.8701Z" fill="#CFF5F1"/>
</g>
<g id="Rectangle 161124500" filter="url(#filter4_d_1_2975)">
<path d="M14.1636 15.7054C14.3937 15.3068 14.9034 15.1703 15.3019 15.4004L18.1887 17.0671C18.5873 17.2972 18.7238 17.8068 18.4937 18.2054C18.2636 18.604 17.7539 18.7406 17.3553 18.5104L14.4686 16.8438C14.07 16.6137 13.9335 16.104 14.1636 15.7054Z" fill="url(#paint3_linear_1_2975)"/>
</g>
<g id="Rectangle 161124498" filter="url(#filter5_d_1_2975)">
<rect x="14.8333" y="4.54507" width="23.3333" height="5" rx="2.5" transform="rotate(30 14.8333 4.54507)" fill="url(#paint4_linear_1_2975)"/>
<rect x="15.0468" y="5.34192" width="22.1667" height="3.83333" rx="1.91667" transform="rotate(30 15.0468 5.34192)" stroke="url(#paint5_linear_1_2975)" stroke-width="1.16667"/>
</g>
<g id="Subtract">
<mask id="path-9-inside-2_1_2975" fill="white">
<path d="M22.6817 29.2837C20.6106 32.8709 16.0238 34.0999 12.4366 32.0288C8.98803 30.0377 7.72057 25.7224 9.46783 22.2046H26.7686L22.6817 29.2837Z"/>
</mask>
<path d="M22.6817 29.2837C20.6106 32.8709 16.0238 34.0999 12.4366 32.0288C8.98803 30.0377 7.72057 25.7224 9.46783 22.2046H26.7686L22.6817 29.2837Z" fill="url(#paint6_linear_1_2975)"/>
<path d="M22.6817 29.2837L23.0425 29.492L23.0425 29.492L22.6817 29.2837ZM12.4366 32.0288L12.2282 32.3897L12.2282 32.3897L12.4366 32.0288ZM9.46783 22.2046V21.7879H9.20956L9.09466 22.0192L9.46783 22.2046ZM26.7686 22.2046L27.1295 22.4129L27.4903 21.7879H26.7686V22.2046ZM22.6817 29.2837L22.3209 29.0754C20.3648 32.4632 16.0328 33.624 12.6449 31.668L12.4366 32.0288L12.2282 32.3897C16.0147 34.5758 20.8564 33.2785 23.0425 29.492L22.6817 29.2837ZM12.4366 32.0288L12.6449 31.668C9.38821 29.7877 8.19092 25.7121 9.841 22.3899L9.46783 22.2046L9.09466 22.0192C7.25022 25.7327 8.58785 30.2878 12.2282 32.3897L12.4366 32.0288ZM9.46783 22.2046V22.6213H26.7686V22.2046V21.7879H9.46783V22.2046ZM26.7686 22.2046L26.4078 21.9963L22.3209 29.0754L22.6817 29.2837L23.0425 29.492L27.1295 22.4129L26.7686 22.2046Z" fill="url(#paint7_linear_1_2975)" mask="url(#path-9-inside-2_1_2975)"/>
</g>
</g>
<g id="Group 1437253005" filter="url(#filter6_d_1_2975)">
<foreignObject x="12.4692" y="12.4692" width="34.2154" height="34.2154"><div xmlns="http://www.w3.org/1999/xhtml" style="backdrop-filter:blur(5.02px);clip-path:url(#bgblur_0_1_2975_clip_path);height:100%;width:100%"></div></foreignObject><g id="Ellipse 2007" opacity="0.92" filter="url(#filter7_ii_1_2975)" data-figma-bg-blur-radius="10.0308">
<circle cx="29.5769" cy="29.5769" r="7.07692" fill="#70FFDE" fill-opacity="0.15"/>
</g>
<circle id="Ellipse 2008" cx="29.0901" cy="29.5768" r="1.91667" transform="rotate(-45 29.0901 29.5768)" stroke="#66BFB3" stroke-width="1.16667"/>
<rect id="Rectangle 161124496" x="31.9614" y="32.0813" width="0.583333" height="1.99805" rx="0.291667" transform="rotate(135 31.9614 32.0813)" fill="#66BFB3" stroke="#66BFB3" stroke-width="0.583333"/>
</g>
</g>
<defs>
<filter id="filter0_d_1_2975" x="4.51853" y="0.666982" width="31.9598" height="36.5351" filterUnits="userSpaceOnUse" color-interpolation-filters="sRGB">
<feFlood flood-opacity="0" result="BackgroundImageFix"/>
<feColorMatrix in="SourceAlpha" type="matrix" values="0 0 0 0 0 0 0 0 0 0 0 0 0 0 0 0 0 0 127 0" result="hardAlpha"/>
<feOffset/>
<feGaussianBlur stdDeviation="0.833333"/>
<feComposite in2="hardAlpha" operator="out"/>
<feColorMatrix type="matrix" values="0 0 0 0 0.294111 0 0 0 0 0.676709 0 0 0 0 0.619319 0 0 0 0.5 0"/>
<feBlend mode="normal" in2="BackgroundImageFix" result="effect1_dropShadow_1_2975"/>
<feBlend mode="normal" in="SourceGraphic" in2="effect1_dropShadow_1_2975" result="shape"/>
</filter>
<filter id="filter1_i_1_2975" x="4.51853" y="1.50032" width="30.2931" height="34.0351" filterUnits="userSpaceOnUse" color-interpolation-filters="sRGB">
<feFlood flood-opacity="0" result="BackgroundImageFix"/>
<feBlend mode="normal" in="SourceGraphic" in2="BackgroundImageFix" result="shape"/>
<feColorMatrix in="SourceAlpha" type="matrix" values="0 0 0 0 0 0 0 0 0 0 0 0 0 0 0 0 0 0 127 0" result="hardAlpha"/>
<feOffset dx="-1.66667" dy="-0.833333"/>
<feGaussianBlur stdDeviation="0.833333"/>
<feComposite in2="hardAlpha" operator="arithmetic" k2="-1" k3="1"/>
<feColorMatrix type="matrix" values="0 0 0 0 1 0 0 0 0 1 0 0 0 0 1 0 0 0 0.35 0"/>
<feBlend mode="normal" in2="shape" result="effect1_innerShadow_1_2975"/>
</filter>
<clipPath id="paint1_angular_1_2975_clip_path"><path d="M21.8194 2.80494L21.2361 3.81531L32.471 10.3018L33.0543 9.29143L33.6377 8.28107L22.4027 1.79458L21.8194 2.80494ZM34.3404 14.091L33.33 13.5076L23.8368 29.9504L24.8471 30.5338L25.8575 31.1171L35.3507 14.6743L34.3404 14.091ZM7.52661 20.5338L8.53697 21.1171L18.0302 4.67431L17.0199 4.09098L16.0095 3.50765L6.51625 19.9504L7.52661 20.5338ZM11.1869 34.194L11.7702 33.1836C7.54528 30.7444 6.09772 25.342 8.53697 21.1171L7.52661 20.5338L6.51625 19.9504C3.43266 25.2914 5.2626 32.1208 10.6035 35.2044L11.1869 34.194ZM24.8471 30.5338L23.8368 29.9504C21.3975 34.1753 15.9951 35.6229 11.7702 33.1836L11.1869 34.194L10.6035 35.2044C15.9445 38.288 22.7739 36.458 25.8575 31.1171L24.8471 30.5338ZM33.0543 9.29143L32.471 10.3018C33.5935 10.9499 33.9781 12.3852 33.33 13.5076L34.3404 14.091L35.3507 14.6743C36.6431 12.4358 35.8762 9.57346 33.6377 8.28107L33.0543 9.29143ZM21.8194 2.80494L22.4027 1.79458C20.1642 0.502185 17.3019 1.26915 16.0095 3.50765L17.0199 4.09098L18.0302 4.67431C18.6783 3.55183 20.1136 3.16724 21.2361 3.81531L21.8194 2.80494Z"/></clipPath><filter id="filter2_d_1_2975" x="14.6864" y="12.8158" width="4.34109" height="3.73104" filterUnits="userSpaceOnUse" color-interpolation-filters="sRGB">
<feFlood flood-opacity="0" result="BackgroundImageFix"/>
<feColorMatrix in="SourceAlpha" type="matrix" values="0 0 0 0 0 0 0 0 0 0 0 0 0 0 0 0 0 0 127 0" result="hardAlpha"/>
<feOffset dy="0.307692"/>
<feGaussianBlur stdDeviation="0.307692"/>
<feComposite in2="hardAlpha" operator="out"/>
<feColorMatrix type="matrix" values="0 0 0 0 0 0 0 0 0 0 0 0 0 0 0 0 0 0 0.1 0"/>
<feBlend mode="normal" in2="BackgroundImageFix" result="effect1_dropShadow_1_2975"/>
<feBlend mode="normal" in="SourceGraphic" in2="effect1_dropShadow_1_2975" result="shape"/>
</filter>
<filter id="filter3_d_1_2975" x="12.1864" y="17.1456" width="4.34109" height="3.73104" filterUnits="userSpaceOnUse" color-interpolation-filters="sRGB">
<feFlood flood-opacity="0" result="BackgroundImageFix"/>
<feColorMatrix in="SourceAlpha" type="matrix" values="0 0 0 0 0 0 0 0 0 0 0 0 0 0 0 0 0 0 127 0" result="hardAlpha"/>
<feOffset dy="0.307692"/>
<feGaussianBlur stdDeviation="0.307692"/>
<feComposite in2="hardAlpha" operator="out"/>
<feColorMatrix type="matrix" values="0 0 0 0 0 0 0 0 0 0 0 0 0 0 0 0 0 0 0.1 0"/>
<feBlend mode="normal" in2="BackgroundImageFix" result="effect1_dropShadow_1_2975"/>
<feBlend mode="normal" in="SourceGraphic" in2="effect1_dropShadow_1_2975" result="shape"/>
</filter>
<filter id="filter4_d_1_2975" x="13.4364" y="14.9809" width="5.78447" height="4.56439" filterUnits="userSpaceOnUse" color-interpolation-filters="sRGB">
<feFlood flood-opacity="0" result="BackgroundImageFix"/>
<feColorMatrix in="SourceAlpha" type="matrix" values="0 0 0 0 0 0 0 0 0 0 0 0 0 0 0 0 0 0 127 0" result="hardAlpha"/>
<feOffset dy="0.307692"/>
<feGaussianBlur stdDeviation="0.307692"/>
<feComposite in2="hardAlpha" operator="out"/>
<feColorMatrix type="matrix" values="0 0 0 0 0 0 0 0 0 0 0 0 0 0 0 0 0 0 0.1 0"/>
<feBlend mode="normal" in2="BackgroundImageFix" result="effect1_dropShadow_1_2975"/>
<feBlend mode="normal" in="SourceGraphic" in2="effect1_dropShadow_1_2975" result="shape"/>
</filter>
<filter id="filter5_d_1_2975" x="12.4146" y="4.62638" width="22.5446" height="15.8342" filterUnits="userSpaceOnUse" color-interpolation-filters="sRGB">
<feFlood flood-opacity="0" result="BackgroundImageFix"/>
<feColorMatrix in="SourceAlpha" type="matrix" values="0 0 0 0 0 0 0 0 0 0 0 0 0 0 0 0 0 0 127 0" result="hardAlpha"/>
<feOffset/>
<feGaussianBlur stdDeviation="0.416667"/>
<feComposite in2="hardAlpha" operator="out"/>
<feColorMatrix type="matrix" values="0 0 0 0 0 0 0 0 0 0.470199 0 0 0 0 0.410853 0 0 0 0.5 0"/>
<feBlend mode="normal" in2="BackgroundImageFix" result="effect1_dropShadow_1_2975"/>
<feBlend mode="normal" in="SourceGraphic" in2="effect1_dropShadow_1_2975" result="shape"/>
</filter>
<filter id="filter6_d_1_2975" x="20.8333" y="20.8333" width="17.4872" height="17.4872" filterUnits="userSpaceOnUse" color-interpolation-filters="sRGB">
<feFlood flood-opacity="0" result="BackgroundImageFix"/>
<feColorMatrix in="SourceAlpha" type="matrix" values="0 0 0 0 0 0 0 0 0 0 0 0 0 0 0 0 0 0 127 0" result="hardAlpha"/>
<feOffset/>
<feGaussianBlur stdDeviation="0.833333"/>
<feComposite in2="hardAlpha" operator="out"/>
<feColorMatrix type="matrix" values="0 0 0 0 0.294111 0 0 0 0 0.676709 0 0 0 0 0.619319 0 0 0 0.5 0"/>
<feBlend mode="normal" in2="BackgroundImageFix" result="effect1_dropShadow_1_2975"/>
<feBlend mode="normal" in="SourceGraphic" in2="effect1_dropShadow_1_2975" result="shape"/>
</filter>
<filter id="filter7_ii_1_2975" x="12.4692" y="12.4692" width="34.2154" height="34.2154" filterUnits="userSpaceOnUse" color-interpolation-filters="sRGB">
<feFlood flood-opacity="0" result="BackgroundImageFix"/>
<feBlend mode="normal" in="SourceGraphic" in2="BackgroundImageFix" result="shape"/>
<feColorMatrix in="SourceAlpha" type="matrix" values="0 0 0 0 0 0 0 0 0 0 0 0 0 0 0 0 0 0 127 0" result="hardAlpha"/>
<feOffset dx="0.615385" dy="0.166667"/>
<feGaussianBlur stdDeviation="0.307692"/>
<feComposite in2="hardAlpha" operator="arithmetic" k2="-1" k3="1"/>
<feColorMatrix type="matrix" values="0 0 0 0 0.784314 0 0 0 0 0.980392 0 0 0 0 0.977124 0 0 0 0.71 0"/>
<feBlend mode="normal" in2="shape" result="effect1_innerShadow_1_2975"/>
<feColorMatrix in="SourceAlpha" type="matrix" values="0 0 0 0 0 0 0 0 0 0 0 0 0 0 0 0 0 0 127 0" result="hardAlpha"/>
<feOffset dx="-0.615385"/>
<feGaussianBlur stdDeviation="0.307692"/>
<feComposite in2="hardAlpha" operator="arithmetic" k2="-1" k3="1"/>
<feColorMatrix type="matrix" values="0 0 0 0 0.293023 0 0 0 0 0.783333 0 0 0 0 0.709787 0 0 0 0.34 0"/>
<feBlend mode="normal" in2="effect1_innerShadow_1_2975" result="effect2_innerShadow_1_2975"/>
</filter>
<clipPath id="bgblur_0_1_2975_clip_path" transform="translate(-12.4692 -12.4692)"><circle cx="29.5769" cy="29.5769" r="7.07692"/>
</clipPath><linearGradient id="paint0_linear_1_2975" x1="29.0746" y1="23.3173" x2="11.4052" y2="14.2619" gradientUnits="userSpaceOnUse">
<stop stop-color="#43B0AA"/>
<stop offset="1" stop-color="#7CD6B5"/>
</linearGradient>
<linearGradient id="paint2_linear_1_2975" x1="15.1084" y1="12.4018" x2="16.6704" y2="33.0297" gradientUnits="userSpaceOnUse">
<stop stop-color="white" stop-opacity="0.4"/>
<stop offset="0.376504" stop-color="white" stop-opacity="0"/>
</linearGradient>
<linearGradient id="paint3_linear_1_2975" x1="14.1636" y1="15.7054" x2="18.1606" y2="18.0131" gradientUnits="userSpaceOnUse">
<stop stop-color="#EFFEFB"/>
<stop offset="1" stop-color="#CFF5F1"/>
</linearGradient>
<linearGradient id="paint4_linear_1_2975" x1="35.25" y1="4.96174" x2="18.1667" y2="9.12841" gradientUnits="userSpaceOnUse">
<stop stop-color="#BFE2DE"/>
<stop offset="1" stop-color="#8DDACC"/>
</linearGradient>
<linearGradient id="paint5_linear_1_2975" x1="14.8333" y1="7.04507" x2="38.1667" y2="7.04507" gradientUnits="userSpaceOnUse">
<stop stop-color="#F0FFFE"/>
<stop offset="1" stop-color="#C8F5EE"/>
</linearGradient>
<linearGradient id="paint6_linear_1_2975" x1="23.271" y1="27.2045" x2="8.68897" y2="23.8717" gradientUnits="userSpaceOnUse">
<stop stop-color="white" stop-opacity="0"/>
<stop offset="1" stop-color="white" stop-opacity="0.4"/>
</linearGradient>
<linearGradient id="paint7_linear_1_2975" x1="9.93896" y1="22.2046" x2="17.4419" y2="32.7593" gradientUnits="userSpaceOnUse">
<stop stop-color="#D4FFF6"/>
<stop offset="0.694496" stop-color="#D4FFF6" stop-opacity="0"/>
</linearGradient>
</defs>
</svg>
